<mxfile host="app.diagrams.net" modified="2023-04-22T06:39:58.857Z" agent="Mozilla/5.0 (Windows NT 10.0; Win64; x64) AppleWebKit/537.36 (KHTML, like Gecko) Chrome/112.0.0.0 Safari/537.36" version="21.1.8" etag="tc6Wz1zW-IEFE-AHwwfM" type="github">
  <diagram name="Page-1" id="kqxEvP93O8QeyCSWoTXj">
    <mxGraphModel>
      <root>
        <mxCell id="0" />
        <mxCell id="1" parent="0" />
      </root>
    </mxGraphModel>
  </diagram>
</mxfile>
